# xmcd CD database file
# Copyright (C) 1993-1998 Ti Kan
#
# Track frame offsets:
#  150
#  14290
#  28288
#  40860
#  53231
#  67773
#  87163
#  111917
#  122365
#  136508
#  148633
#  171309
#  181089
#
# Disc length: 2646 seconds
#
# Revision: 1
# Processed by: cddbd v1.4b41PL1 Copyright (c) Steve Scherf et al.
# Submitted via: CDWizzard Release:4.24
#
DISCID=a40a540d
DTITLE=Terri Hendrix - Wilory Farm - Advanced Limited Edition
DYEAR=1900
DGENRE=
TTITLE0=Flowers
TTITLE1=Walk On Me
TTITLE2=Wallet
TTITLE3=Sister's Apartment
TTITLE4=Love Like This
TTITLE5=Hole In My Pocket
TTITLE6=Gravity
TTITLE7=The Know How
TTITLE8=Lluvia de Estrellas (Rain of Stars)
TTITLE9=Albert the Perfect Friend
TTITLE10=Wind Me Up
TTITLE11=The Last Song
TTITLE12=
EXTD=
EXTT0=
EXTT1=
EXTT2=
EXTT3=
EXTT4=
EXTT5=
EXTT6=
EXTT7=
EXTT8=
EXTT9=
EXTT10=
EXTT11=
EXTT12=
PLAYORDER=
